<svg id="Layer_1" data-name="Layer 1" xmlns="http://www.w3.org/2000/svg" viewBox="0 0 288 288"><defs><style>.cls-1{fill:red;}</style></defs><title>Cross</title><path class="cls-1" d="M30.34,213.81A76.72,76.72,0,0,1,32,199.66a41,41,0,0,1,5.82-12.56c5.16-8,12.07-14.35,18.76-20.92,3.27-3.21,6.91-6.07,10.43-9q6.71-5.61,13.52-11.09c3-2.45,6.15-4.8,9.23-7.19,3.47-2.69,7-5.36,10.42-8.08.88-.69.39-1.46-.12-2.13q-2.45-3.16-4.92-6.29c-4-5.06-7.67-10.33-11.23-15.69-4.26-6.41-8.2-13-11.87-19.77-3.13-5.77-6-11.7-8.64-17.7-2.24-5-4.52-10-6.41-15.2s-4-10.33-5.11-15.76A27.24,27.24,0,0,1,51,35.59c-.38-3.3,1-5.79,3.2-8,.8-.83,1.46-1,2.42.09,4.89,5.63,9.28,11.65,13.84,17.53q8.32,10.71,17.12,21c6.68,7.8,13.59,15.38,20.53,22.95,5.68,6.2,11.89,11.89,17.4,18.26,1.17,1.36,2.1,1.39,3.65.09C136.94,101,145,94.82,153.27,89c5.24-3.69,10.53-7.29,15.95-10.67a206.44,206.44,0,0,1,21-11.77c3.76-1.78,7.42-3.81,11.27-5.34,4.15-1.66,8.28-3.38,12.47-5,4.77-1.8,9.56-3.52,14.4-5.08,4.67-1.5,9.37-2.91,14.18-3.95a51.49,51.49,0,0,0,6.35-1.53c3-1.06,8.26,1.14,9.73,4,.46.89,0,1.54-.77,2.05-4.35,3-8.68,6-13.05,8.9-5.9,4-11.78,7.94-17.6,12-6,4.22-11.87,8.71-17.82,13.05-4.06,3-7.88,6.25-11.8,9.4-3.23,2.6-6.47,5.18-9.66,7.82q-6.71,5.57-13.36,11.22c-4.25,3.63-8.56,7.21-12.62,11-2.54,2.39-5.31,4.51-7.79,7-1.27,1.26-1.12,1.63.19,2.64,2.34,1.82,4.42,4,6.68,5.92,3.71,3.18,7.47,6.31,11.23,9.44s7.43,6.13,11.17,9.17c4.32,3.52,8.63,7.05,13,10.52,5,4,10,7.84,15,11.77,2.88,2.26,5.74,4.56,8.62,6.82s6,4.61,9,6.94c2.24,1.76,4.43,3.58,6.68,5.33,4,3.11,8.07,6.13,12,9.28,3.51,2.78,7,5.56,10.61,8.22,2.78,2.05,5.39,4.32,8.19,6.35,1.15.84,1.11,1.73,1.24,3,.45,4.46-3.19,5.41-5.83,7a61.66,61.66,0,0,1-15,6.49,79.23,79.23,0,0,1-14.14,2.47,54.14,54.14,0,0,1-9.71-.23,37.7,37.7,0,0,1-14.88-4.62,104.08,104.08,0,0,1-18.44-13.54c-9.42-8.38-18-17.59-26.56-26.81-6.92-7.46-13.71-15.07-20.43-22.71-4.61-5.23-9.58-10.12-14-15.5-.8-1-1.59-1.58-2.72-.09-2.8,3.68-6.36,6.66-9.37,10.17-3.86,4.5-8,8.73-12,13.11q-7.68,8.4-15.3,16.84l-17.65,19.5c-4.59,5.07-9.19,10.13-13.73,15.24-3.48,3.9-6.89,7.86-10.31,11.81a5.23,5.23,0,0,1-8.26-.83,67,67,0,0,1-6.24-14.7c-.84-2.76-1.19-5.72-1.83-8.54C30.59,219.51,31.29,216.37,30.34,213.81Z"/></svg>