<svg id="Layer_1" data-name="Layer 1" xmlns="http://www.w3.org/2000/svg" viewBox="0 0 288 288"><defs><style>.cls-1{fill:#090;}</style></defs><title>Tick</title><path class="cls-1" d="M107.5,165.66c2-2.8,3.82-5.4,5.65-8q13.79-19.74,29.08-38.35a592.59,592.59,0,0,1,41.36-45.81A279,279,0,0,1,210,50a224.69,224.69,0,0,1,23.66-15.57A212.62,212.62,0,0,1,254,23.72c3.38-1.51,6.67-3.28,10.3-4.13,2.65-.62,4.92.31,7,2,1.23,1,1.11,1.65.07,2.69-5,4.95-10.07,9.74-15.1,14.61-11.36,11-22.49,22.23-33.11,34-6.29,7-12.61,13.89-18.65,21.07-4,4.82-7.9,9.8-11.81,14.73-8.16,10.27-15.85,20.9-23.41,31.61-8.83,12.51-16.57,25.69-24.24,38.92-6.73,11.61-13.84,23-20.81,34.47-5.53,9.09-11.14,18.14-16.68,27.24-1.5,2.46-5.71,2.63-7.23.17a268.59,268.59,0,0,1-15.47-29.19c-5.09-11.1-9.39-22.55-14.91-33.45-4-7.86-8.14-15.67-13.54-22.69a17,17,0,0,0-10.92-6.81c-2.34-.39-4.55-.81-6.88-.12s-2.8.13-2.23-2.16a22.93,22.93,0,0,1,9.29-13.33,29.84,29.84,0,0,1,37,.46c8,6,13.87,14,19.28,22.3C103.91,159.06,105.55,162.3,107.5,165.66Z"/></svg>