<svg id="Capa_1"  data-name="Capa 1" xmlns="http://www.w3.org/2000/svg" viewBox="0 0 55.4 43.2"><defs><style>.cls-1{fill:#a8ce61;}.cls-2{fill:#20aac6;}.cls-3{fill:#95b256;}.cls-4{fill:#1d99aa;}.cls-5{fill:#ffb536;}.cls-6{fill:#e59c33;}</style></defs><title>Tracking AppLogo-Final</title><polygon class="cls-1" points="25.2 29.2 16.7 26.4 16 27 24.3 42.7 24.9 42.1 27.4 33.4 25.2 29.2"/><polygon class="cls-2" points="27.2 40.2 29.8 37.9 28.5 35.4 27.2 40.2"/><polygon class="cls-1" points="21.5 22.2 18.1 25.2 24.1 27.2 21.5 22.2"/><polygon class="cls-1" points="32.3 16.1 28.2 20.5 30.1 24 32.3 16.1"/><polygon class="cls-2" points="31.2 26.1 36.3 35.8 41.3 29.9 34 16.2 31.2 26.1"/><polygon class="cls-3" points="28.7 28.7 30.1 24 28.2 20.5 21.5 22.2 24.1 27.2 28.7 28.7"/><polygon class="cls-3" points="25.2 29.2 27.4 33.4 28.3 30.2 25.2 29.2"/><polygon class="cls-4" points="28.5 35.4 29.8 37.9 36.3 35.8 31.2 26.1 28.5 35.4"/><polygon class="cls-5" points="24.1 27.2 18.1 25.2 16.7 26.4 25.2 29.2 24.1 27.2"/><polygon class="cls-5" points="27.4 33.4 24.9 42.1 27.2 40.2 28.5 35.4 27.4 33.4"/><polygon class="cls-5" points="31.2 26.1 34 16.2 33.3 15 32.3 16.1 30.1 24 31.2 26.1"/><polygon class="cls-6" points="28.7 28.7 24.1 27.2 25.2 29.2 28.3 30.2 27.4 33.4 28.5 35.4 31.2 26.1 30.1 24 28.7 28.7"/><path class="cls-5" d="M28.2,1.2A12.29,12.29,0,0,0,15.9,13.5a11.81,11.81,0,0,0,1.1,5c3.1,6.7,9,13.9,10.7,15.9.1.2.3.2.5.2a.76.76,0,0,0,.5-.2c1.7-2,7.6-9.1,10.7-15.9a12.52,12.52,0,0,0,1.1-5A12.29,12.29,0,0,0,28.2,1.2Zm0,18.8a6.4,6.4,0,1,1,6.4-6.4A6.38,6.38,0,0,1,28.2,20Z"/><path class="cls-6" d="M28.2,5.2a7.7,7.7,0,1,0,7.7,7.7A7.7,7.7,0,0,0,28.2,5.2Zm.1,11.4H25c0-2.4,2.1-2.4,2.6-3l.1-.3a2.15,2.15,0,0,1-1.1-2.1A2,2,0,0,1,28.4,9a2,2,0,0,1,1.8,2.2,2.59,2.59,0,0,1-1.1,2.1l.1.3c.5.6,2.6.6,2.6,3Z"/></svg>